<?xml version="1.0" encoding="UTF-8"?>
<svg width="28px" height="25px" viewBox="0 0 28 25" version="1.1" xmlns="http://www.w3.org/2000/svg" xmlns:xlink="http://www.w3.org/1999/xlink">
    <title>Fill 1@1x</title>
    <defs>
        <linearGradient x1="50%" y1="4.46847905%" x2="50%" y2="99.2593931%" id="linearGradient-1">
            <stop stop-color="#5B5B5B" offset="0%"></stop>
            <stop stop-color="#72706F" offset="100%"></stop>
        </linearGradient>
    </defs>
    <g id="控件" stroke="none" stroke-width="1" fill="none" fill-rule="evenodd">
        <g id="top" transform="translate(-332, -48)" fill="url(#linearGradient-1)">
            <path d="M355.45,60.4125874 C355.45,55.1678322 351.25,50.972028 346,50.972028 C340.75,50.972028 336.55,55.1678322 336.55,60.4125874 C336.55,65.6573427 340.75,70.027972 346,70.027972 C351.25,70.027972 355.45,65.6573427 355.45,60.4125874 M358.25,62.1608392 C358.425,61.4615385 358.425,60.7622378 358.425,60.0629371 C358.775,60.2377622 358.95,60.5874126 358.95,61.1118881 C358.775,61.4615385 358.6,61.8111888 358.25,62.1608392 M333.225,60.9370629 C333.225,60.5874126 333.4,60.2377622 333.75,59.8881119 C333.75,60.5874126 333.75,61.2867133 333.925,61.986014 C333.4,61.8111888 333.225,61.4615385 333.225,60.9370629 M346,48 C352.3,48 357.375,52.5454545 358.25,58.4895105 C359.3,58.8391608 360,59.7132867 360,60.9370629 C360,62.1608392 359.125,63.2097902 358.075,63.5594406 C357.2,67.4055944 354.4,70.3776224 350.9,71.951049 C350.725,72.4755245 350.2,73 349.675,73 C348.975,73 348.45,72.4755245 348.45,71.7762238 C348.45,71.0769231 348.975,70.5524476 349.675,70.5524476 C349.85,70.5524476 350.2,70.5524476 350.375,70.7272727 C354.4,68.979021 357.2,64.958042 357.2,60.4125874 C357.2,54.2937063 352.125,49.2237762 346,49.2237762 C339.875,49.2237762 334.8,54.2937063 334.8,60.4125874 C334.8,61.2867133 334.975,61.986014 334.975,62.5104895 L334.975,62.6853147 C334.975,63.034965 334.625,63.3846154 334.1,63.3846154 C332.875,63.2097902 332,62.1608392 332,60.9370629 C332,59.8881119 332.7,58.8391608 333.75,58.4895105 C334.625,52.5454545 339.7,48 346,48 Z M349.85,61.986014 C350.2,61.986014 350.375,62.1608392 350.55,62.5104895 C350.55,65.1328671 348.45,67.0559441 346,67.0559441 C343.375,67.0559441 341.45,64.958042 341.45,62.5104895 C341.45,62.1608392 341.8,61.986014 341.975,61.986014 C342.325,61.986014 342.675,62.1608392 342.5,62.5104895 C342.5,64.4335664 344.075,65.8321678 345.825,65.8321678 C347.75,65.8321678 349.15,64.2587413 349.15,62.5104895 C349.15,62.1608392 349.5,61.986014 349.85,61.986014 Z" id="Fill-1"></path>
        </g>
    </g>
</svg>