<?xml version="1.0" encoding="utf-8"?>
<!-- Generator: Adobe Illustrator 27.2.0, SVG Export Plug-In . SVG Version: 6.00 Build 0)  -->
<svg version="1.1" id="圖層_1" xmlns="http://www.w3.org/2000/svg" xmlns:xlink="http://www.w3.org/1999/xlink" x="0px" y="0px"
	 viewBox="0 0 60.1 60.1" style="enable-background:new 0 0 60.1 60.1;" xml:space="preserve">
<style type="text/css">
	.st0{fill:#B1AFAF;}
	.st1{filter:url(#Adobe_OpacityMaskFilter);}
	.st2{fill-rule:evenodd;clip-rule:evenodd;fill:#FFFFFF;}
	.st3{mask:url(#f_00000054974195490856251010000007558118606225236118_);fill-rule:evenodd;clip-rule:evenodd;fill:#FFFFFF;}
</style>
<circle class="st0" cx="30" cy="30" r="30"/>
<g transform="translate(38 9)">
	<defs>
		<filter id="Adobe_OpacityMaskFilter" filterUnits="userSpaceOnUse" x="-23.7" y="3.3" width="35.4" height="35.4">
			<feColorMatrix  type="matrix" values="1 0 0 0 0  0 1 0 0 0  0 0 1 0 0  0 0 0 1 0"/>
		</filter>
	</defs>
	
		<mask maskUnits="userSpaceOnUse" x="-23.7" y="3.3" width="35.4" height="35.4" id="f_00000054974195490856251010000007558118606225236118_">
		<g class="st1">
			<path id="d_00000114075256727705991270000002725806245491004800_" class="st2" d="M-23.7,3.3v35.4h17.7c9.7,0,17.7-8,17.7-17.7
				l0,0c0-9.7-7.9-17.7-17.6-17.7l0,0H-23.7z M6.1,15.4c0-6.6-5.4-12-12-12l0,0C2.3,3.3,8.9,10,8.9,18.2l0,0
				c0,8.2-6.7,14.9-14.9,14.9l0,0c-6.7,0-12-5.5-12-12l0,0c0-6.6,5.4-12,12-12l0,0c3.3,0,6.3,1.4,8.5,3.5l0,0l-4,4
				c-1.2-1.2-2.7-1.9-4.5-1.9l0,0c-3.5,0-6.4,2.9-6.4,6.4l0,0c0,3.5,2.9,6.4,6.4,6.4l0,0C0.7,27.4,6.1,22,6.1,15.4L6.1,15.4z"/>
		</g>
	</mask>
	<path class="st3" d="M-23.7,3.3v35.4h17.7c9.7,0,17.7-8,17.7-17.7c0-9.7-7.9-17.7-17.6-17.7H-23.7z M6.1,15.4c0-6.6-5.4-12-12-12
		l0,0C2.3,3.3,8.9,10,8.9,18.2l0,0c0,8.2-6.7,14.9-14.9,14.9l0,0c-6.7,0-12-5.5-12-12l0,0c0-6.6,5.4-12,12-12l0,0
		c3.3,0,6.3,1.4,8.5,3.5l0,0l-4,4c-1.2-1.2-2.7-1.9-4.5-1.9l0,0c-3.5,0-6.4,2.9-6.4,6.4l0,0c0,3.5,2.9,6.4,6.4,6.4l0,0
		C0.7,27.4,6.1,22,6.1,15.4L6.1,15.4z"/>
</g>
</svg>
