<?xml version="1.0" encoding="UTF-8"?>
<svg width="30px" height="21px" viewBox="0 0 30 21" version="1.1" xmlns="http://www.w3.org/2000/svg" xmlns:xlink="http://www.w3.org/1999/xlink">
    <title>提现@2x</title>
    <defs>
        <linearGradient x1="50%" y1="0%" x2="50%" y2="100%" id="linearGradient-1">
            <stop stop-color="#FE695B" offset="0%"></stop>
            <stop stop-color="#DF412C" offset="99.9230018%"></stop>
        </linearGradient>
    </defs>
    <g id="控件" stroke="none" stroke-width="1" fill="none" fill-rule="evenodd">
        <g id="登录后-rmb" transform="translate(-304, -12)" fill="url(#linearGradient-1)" fill-rule="nonzero">
            <g id="编组-5" transform="translate(212, 9)">
                <path d="M120,3 C121.104569,3 122,3.8954305 122,5 L122,22 C122,23.1045695 121.104569,24 120,24 L94,24 C92.8954305,24 92,23.1045695 92,22 L92,5 C92,3.8954305 92.8954305,3 94,3 L120,3 Z M100.384506,14.1662576 C100.169255,14.003691 99.8638563,14.0411683 99.6942996,14.250957 L99.6749623,14.274988 C99.5068858,14.4974243 99.5497521,14.8048342 99.7657959,14.9679997 L101.133,16 L94.5689655,16 C94.3235056,16 94.1193571,16.1768752 94.0770212,16.4101244 L94.0689655,16.5 C94.0689655,16.7761424 94.2928231,17 94.5689655,17 L101.132,17 L99.7657959,18.0320003 C99.5497521,18.1951658 99.5068858,18.5025757 99.6700513,18.7186195 L99.6942996,18.749043 C99.8638563,18.9588317 100.169255,18.996309 100.384506,18.8337424 L102.854894,16.9679997 C103.004418,16.8550726 103.070989,16.6730517 103.043716,16.5000467 C103.071247,16.3276527 103.004707,16.1451459 102.854894,16.0320003 Z M122,8 L112.62069,8 C111.51612,8 110.62069,8.8954305 110.62069,10 L110.62069,15 C110.62069,16.1045695 111.51612,17 112.62069,17 L122,17 L122,8 Z M116.310345,11 C117.167338,11 117.862069,11.6715729 117.862069,12.5 C117.862069,13.3284271 117.167338,14 116.310345,14 C115.453351,14 114.758621,13.3284271 114.758621,12.5 C114.758621,11.6715729 115.453351,11 116.310345,11 Z" id="提现"></path>
            </g>
        </g>
    </g>
</svg>