<?xml version="1.0" encoding="UTF-8"?>
<svg width="30px" height="21px" viewBox="0 0 30 21" version="1.1" xmlns="http://www.w3.org/2000/svg" xmlns:xlink="http://www.w3.org/1999/xlink">
    <title>充值@2x</title>
    <defs>
        <linearGradient x1="50%" y1="0%" x2="50%" y2="100%" id="linearGradient-1">
            <stop stop-color="#FE695B" offset="0%"></stop>
            <stop stop-color="#DF412C" offset="99.9230018%"></stop>
        </linearGradient>
    </defs>
    <g id="控件" stroke="none" stroke-width="1" fill="none" fill-rule="evenodd">
        <g id="登录后-rmb" transform="translate(-212, -12)" fill="url(#linearGradient-1)" fill-rule="nonzero">
            <g id="编组-5" transform="translate(212, 9)">
                <path d="M30,11 L30,22 C30,23.1045695 29.1045695,24 28,24 L2,24 C0.8954305,24 1.3527075e-16,23.1045695 0,22 L0,11 L30,11 Z M11,18 L2,18 C1.44771525,18 1,18.4477153 1,19 C1,19.5522847 1.44771525,20 2,20 L11,20 C11.5522847,20 12,19.5522847 12,19 C12,18.4477153 11.5522847,18 11,18 Z M13,14 L2,14 C1.44771525,14 1,14.4477153 1,15 C1,15.5522847 1.44771525,16 2,16 L13,16 C13.5522847,16 14,15.5522847 14,15 C14,14.4477153 13.5522847,14 13,14 Z M19,14 L17,14 C16.4477153,14 16,14.4477153 16,15 C16,15.5522847 16.4477153,16 17,16 L19,16 C19.5522847,16 20,15.5522847 20,15 C20,14.4477153 19.5522847,14 19,14 Z M28,3 C29.1045695,3 30,3.8954305 30,5 L30,8 L0,8 L0,5 C-1.3527075e-16,3.8954305 0.8954305,3 2,3 L28,3 Z" id="充值"></path>
            </g>
        </g>
    </g>
</svg>