<?xml version="1.0" encoding="UTF-8"?>
<svg width="26px" height="26px" viewBox="0 0 26 26" version="1.1" xmlns="http://www.w3.org/2000/svg" xmlns:xlink="http://www.w3.org/1999/xlink">
    <title>洗码@2x</title>
    <defs>
        <linearGradient x1="50%" y1="0%" x2="50%" y2="100%" id="linearGradient-1">
            <stop stop-color="#FE695B" offset="0%"></stop>
            <stop stop-color="#DF412C" offset="99.9230018%"></stop>
        </linearGradient>
    </defs>
    <g id="控件" stroke="none" stroke-width="1" fill="none" fill-rule="evenodd">
        <g id="登录后-rmb" transform="translate(-260, -9)" fill="url(#linearGradient-1)" fill-rule="nonzero">
            <g id="编组-5" transform="translate(212, 9)">
                <path d="M60.9864502,16.5032959 C62.6433044,16.5032959 63.9864502,15.1601501 63.9864502,13.5032959 C63.9864502,11.8464416 62.6433044,10.5032959 60.9864502,10.5032959 C59.3295959,10.5032959 57.9864502,11.8464416 57.9864502,13.5032959 C57.9864502,15.1601501 59.3295959,16.5032959 60.9864502,16.5032959 Z M61.0062062,0 C57.5475811,0 54.2988444,1.3680656 51.8631232,3.76044847 L51.7853767,3.85121247 C49.3905558,6.21857434 48,9.50122278 48,13.0122897 C48,16.5157141 49.3943004,19.7988189 51.8232545,22.1841138 C54.2443283,24.6149828 57.5084878,26 61.0062062,26 C64.4701331,26 67.7211702,24.6397995 70.1491888,22.2581958 L70.2305151,22.1539321 L70.241,22.134 L70.1934186,22.1833714 C72.6119714,19.7982118 74,16.5154783 74,13.0122897 C74,9.50157569 72.615654,6.21910136 70.1949397,3.81175385 C67.7719584,1.39282266 64.4928683,0 61.0062062,0 Z M61.0062062,1 C64.2244908,1 67.2505984,2.28536612 69.4891091,4.52013381 C71.7230381,6.74172879 73,9.76958067 73,13.0122897 C73,16.2464513 71.720225,19.2731614 69.4912443,21.4713663 L69.4108801,21.5746838 L69.402,21.588 L69.4489385,21.5442984 C67.2057673,23.7445883 64.2051876,25 61.0062062,25 C57.7771786,25 54.7670938,23.7227894 52.5278504,21.4745268 C50.2853255,19.2722669 49,16.2457611 49,13.0122897 C49,9.77015828 50.2824515,6.74270877 52.5254062,4.52159903 L52.6016994,4.43226839 C54.8151659,2.26261952 57.8135004,1 61.0062062,1 Z M63.5560523,2.61901855 C64.6343902,2.87059935 65.6405953,3.30451943 66.5493173,3.85137265 C67.4580394,4.39822587 70.7943771,7.0238291 71.4602421,10.522363 L70.3693608,10.522363 C69.9667866,10.522363 69.5835048,10.6920261 69.3096569,10.9624071 C69.0174713,11.239011 68.8352462,11.6350343 68.8352462,12.0562782 L68.8352462,14.1816931 C68.8352462,14.5839721 69.0018661,14.9675826 69.2689978,15.237799 C69.5676033,15.5331044 69.9512143,15.7091879 70.3693608,15.7091879 L71.4605713,15.7091879 C71.1931432,16.7656231 69.3096569,22.0125407 63.5561182,23.6129274 L63.5561182,22.5314033 C63.5622417,22.0973186 63.3800825,21.7140044 63.1159796,21.4309472 C62.8359752,21.1607308 62.4459444,20.9971917 62.0278308,20.9971917 L59.9056576,20.9971917 C59.4875112,20.9971917 59.0976779,21.1607308 58.8240934,21.4309472 C58.54748,21.7140044 58.3714114,22.0973186 58.3714114,22.5314033 L58.3714114,23.6190186 C53.0957073,22.0125407 51.1233585,17.3285684 50.4605713,15.7095172 L51.5612964,15.7095172 C51.9794428,15.7156741 52.356601,15.5334666 52.6364408,15.2507386 C52.9289557,14.9801929 53.0957073,14.590162 53.0957073,14.1817589 L53.0957073,12.0566733 C53.0957073,11.635133 52.9289886,11.2392744 52.6364408,10.9751821 C52.356601,10.6921249 51.9794428,10.5224617 51.5612964,10.5224617 L50.4605713,10.5224617 C50.7246413,9.45364668 51.1492076,8.45377681 51.7151095,7.52328016 C52.524123,6.37073308 53.1424811,5.57971974 53.5701838,5.15024015 C53.9550773,4.76374761 54.5556135,4.33080275 55.3717923,3.85140558 C56.2930249,3.30455236 57.2960365,2.87063228 58.3713455,2.61901855 L58.3713455,3.7069631 C58.3713455,4.13446279 58.5474141,4.51790866 58.817904,4.79441377 C59.0975791,5.06492651 59.4874453,5.24101002 59.9055918,5.24101002 L62.0280613,5.24101002 C62.4306355,5.24101002 62.8585928,5.03697309 63.1159796,4.79441377 C63.4093614,4.35005643 63.5560523,3.987518 63.5560523,3.70679848 L63.5560523,2.61901855 Z M61.0098837,9.12737482 C59.8345671,9.12737482 58.7663345,9.61436304 58.0061224,10.3632072 L57.9685309,10.3898746 C57.1922002,11.1815211 56.7210028,12.2405139 56.7210028,13.433684 C56.7210028,14.6156774 57.1922002,15.6749503 57.9685309,16.4611344 C58.7530751,17.236646 59.8239148,17.7182839 61.0099117,17.7182839 C62.182341,17.7182839 63.2559278,17.2423604 64.0299038,16.4824515 L64.0457701,16.4611344 C64.8247078,15.6746982 65.3119118,14.6156774 65.3119118,13.433684 C65.3119118,12.2405139 64.8247078,11.1815211 64.0457701,10.3898746 C63.2668324,9.61422298 62.1929933,9.12737482 61.0098837,9.12737482 Z" id="洗码"></path>
            </g>
        </g>
    </g>
</svg>